
<svg xmlns="http://www.w3.org/2000/svg" viewBox="0 0 100 150">
  <ellipse cx="50" cy="30" rx="25" ry="30" fill="none" stroke="#666" stroke-width="1"/>
  <path d="M35,60 C35,60 25,90 25,110 C25,130 35,150 50,150 C65,150 75,130 75,110 C75,90 65,60 65,60 Z" fill="none" stroke="#666" stroke-width="1"/>
  <path d="M40,60 C40,50 60,50 60,60" fill="none" stroke="#666" stroke-width="1"/>
  <ellipse cx="40" cy="25" rx="5" ry="3" fill="none" stroke="#666" stroke-width="1"/>
  <ellipse cx="60" cy="25" rx="5" ry="3" fill="none" stroke="#666" stroke-width="1"/>
  <path d="M40,40 C45,45 55,45 60,40" fill="none" stroke="#666" stroke-width="1"/>
  <path d="M50,25 L50,35 C50,38 53,38 53,35" fill="none" stroke="#666" stroke-width="1"/>
</svg>
